STARTFONT 2.1
FONT -FontForge-Munro-Book-R-Normal--10-100-75-75-P-45-ISO10646-1
SIZE 10 75 75
FONTBOUNDINGBOX 11 11 -1 -2
COMMENT "Generated by fontforge, http://fontforge.sourceforge.net"
COMMENT "Typeface (c) (Ten by Twenty). 2007. All Rights Reserved"
STARTPROPERTIES 39
FOUNDRY "FontForge"
FAMILY_NAME "Munro"
WEIGHT_NAME "Book"
SLANT "R"
SETWIDTH_NAME "Normal"
ADD_STYLE_NAME ""
PIXEL_SIZE 10
POINT_SIZE 100
RESOLUTION_X 75
RESOLUTION_Y 75
SPACING "P"
AVERAGE_WIDTH 45
CHARSET_REGISTRY "ISO10646"
CHARSET_ENCODING "1"
FONTNAME_REGISTRY ""
CHARSET_COLLECTIONS "ISO10646-1"
FONT_NAME "Munro"
FACE_NAME "Munro"
COPYRIGHT "Typeface (c) (Ten by Twenty). 2007. All Rights Reserved"
FONT_VERSION "1.00 November 22, 2007, initial release"
FONT_ASCENT 8
FONT_DESCENT 2
UNDERLINE_POSITION -1
UNDERLINE_THICKNESS 1
X_HEIGHT 4
CAP_HEIGHT 6
RAW_ASCENT 799
RAW_DESCENT 200
NORM_SPACE 3
RELATIVE_WEIGHT 40
RELATIVE_SETWIDTH 50
SUPERSCRIPT_X 0
SUPERSCRIPT_Y 4
SUPERSCRIPT_SIZE 6
SUBSCRIPT_X 0
SUBSCRIPT_Y 1
SUBSCRIPT_SIZE 6
AVG_LOWERCASE_WIDTH 46
AVG_UPPERCASE_WIDTH 47
ENDPROPERTIES
CHARS 115
STARTCHAR space
ENCODING 32
SWIDTH 292 0
DWIDTH 3 0
BBX 1 1 0 0
BITMAP
00
ENDCHAR
STARTCHAR exclam
ENCODING 33
SWIDTH 195 0
DWIDTH 2 0
BBX 1 7 0 0
BITMAP
80
80
80
80
80
00
80
ENDCHAR
STARTCHAR quotedbl
ENCODING 34
SWIDTH 390 0
DWIDTH 4 0
BBX 3 2 0 6
BITMAP
A0
A0
ENDCHAR
STARTCHAR numbersign
ENCODING 35
SWIDTH 585 0
DWIDTH 6 0
BBX 5 5 0 1
BITMAP
50
F8
50
F8
50
ENDCHAR
STARTCHAR dollar
ENCODING 36
SWIDTH 390 0
DWIDTH 4 0
BBX 3 9 0 -1
BITMAP
40
60
80
80
40
20
20
C0
40
ENDCHAR
STARTCHAR percent
ENCODING 37
SWIDTH 781 0
DWIDTH 8 0
BBX 7 7 0 0
BITMAP
42
A4
48
10
24
4A
84
ENDCHAR
STARTCHAR ampersand
ENCODING 38
SWIDTH 683 0
DWIDTH 7 0
BBX 6 7 0 0
BITMAP
20
50
20
54
88
88
74
ENDCHAR
STARTCHAR quotesingle
ENCODING 39
SWIDTH 195 0
DWIDTH 2 0
BBX 1 2 0 6
BITMAP
80
80
ENDCHAR
STARTCHAR parenleft
ENCODING 40
SWIDTH 292 0
DWIDTH 3 0
BBX 2 9 0 -1
BITMAP
40
80
80
80
80
80
80
80
40
ENDCHAR
STARTCHAR parenright
ENCODING 41
SWIDTH 292 0
DWIDTH 3 0
BBX 2 9 0 -1
BITMAP
80
40
40
40
40
40
40
40
80
ENDCHAR
STARTCHAR asterisk
ENCODING 42
SWIDTH 390 0
DWIDTH 4 0
BBX 3 3 0 5
BITMAP
A0
40
A0
ENDCHAR
STARTCHAR plus
ENCODING 43
SWIDTH 585 0
DWIDTH 6 0
BBX 5 5 0 1
BITMAP
20
20
F8
20
20
ENDCHAR
STARTCHAR comma
ENCODING 44
SWIDTH 195 0
DWIDTH 2 0
BBX 1 2 0 -1
BITMAP
80
80
ENDCHAR
STARTCHAR hyphen
ENCODING 45
SWIDTH 390 0
DWIDTH 4 0
BBX 3 1 0 2
BITMAP
E0
ENDCHAR
STARTCHAR period
ENCODING 46
SWIDTH 195 0
DWIDTH 2 0
BBX 1 1 0 0
BITMAP
80
ENDCHAR
STARTCHAR slash
ENCODING 47
SWIDTH 390 0
DWIDTH 4 0
BBX 3 9 0 -1
BITMAP
20
20
20
40
40
40
80
80
80
ENDCHAR
STARTCHAR zero
ENCODING 48
SWIDTH 488 0
DWIDTH 5 0
BBX 4 7 0 0
BITMAP
60
90
90
90
90
90
60
ENDCHAR
STARTCHAR one
ENCODING 49
SWIDTH 292 0
DWIDTH 3 0
BBX 2 7 0 0
BITMAP
40
C0
40
40
40
40
40
ENDCHAR
STARTCHAR two
ENCODING 50
SWIDTH 390 0
DWIDTH 4 0
BBX 3 7 0 0
BITMAP
C0
20
20
40
80
80
E0
ENDCHAR
STARTCHAR three
ENCODING 51
SWIDTH 390 0
DWIDTH 4 0
BBX 3 7 0 0
BITMAP
C0
20
20
C0
20
20
C0
ENDCHAR
STARTCHAR four
ENCODING 52
SWIDTH 488 0
DWIDTH 5 0
BBX 4 7 0 0
BITMAP
80
80
A0
A0
F0
20
20
ENDCHAR
STARTCHAR five
ENCODING 53
SWIDTH 390 0
DWIDTH 4 0
BBX 3 7 0 0
BITMAP
E0
80
80
C0
20
20
C0
ENDCHAR
STARTCHAR six
ENCODING 54
SWIDTH 488 0
DWIDTH 5 0
BBX 4 7 0 0
BITMAP
60
80
80
E0
90
90
60
ENDCHAR
STARTCHAR seven
ENCODING 55
SWIDTH 390 0
DWIDTH 4 0
BBX 3 7 0 0
BITMAP
E0
20
20
40
40
80
80
ENDCHAR
STARTCHAR eight
ENCODING 56
SWIDTH 488 0
DWIDTH 5 0
BBX 4 7 0 0
BITMAP
60
90
90
60
90
90
60
ENDCHAR
STARTCHAR nine
ENCODING 57
SWIDTH 488 0
DWIDTH 5 0
BBX 4 7 0 0
BITMAP
60
90
90
70
10
10
60
ENDCHAR
STARTCHAR colon
ENCODING 58
SWIDTH 195 0
DWIDTH 2 0
BBX 1 4 0 0
BITMAP
80
00
00
80
ENDCHAR
STARTCHAR semicolon
ENCODING 59
SWIDTH 195 0
DWIDTH 2 0
BBX 1 5 0 -1
BITMAP
80
00
00
80
80
ENDCHAR
STARTCHAR less
ENCODING 60
SWIDTH 495 0
DWIDTH 5 0
BBX 5 5 0 1
BITMAP
08
20
80
20
08
ENDCHAR
STARTCHAR equal
ENCODING 61
SWIDTH 495 0
DWIDTH 5 0
BBX 5 3 0 2
BITMAP
F8
00
F8
ENDCHAR
STARTCHAR greater
ENCODING 62
SWIDTH 495 0
DWIDTH 5 0
BBX 5 5 0 1
BITMAP
80
20
18
20
80
ENDCHAR
STARTCHAR question
ENCODING 63
SWIDTH 390 0
DWIDTH 4 0
BBX 3 7 0 0
BITMAP
C0
20
20
40
40
00
40
ENDCHAR
STARTCHAR at
ENCODING 64
SWIDTH 781 0
DWIDTH 8 0
BBX 7 7 0 0
BITMAP
38
44
92
AA
9A
44
38
ENDCHAR
STARTCHAR A
ENCODING 65
SWIDTH 488 0
DWIDTH 5 0
BBX 4 7 0 0
BITMAP
60
90
90
F0
90
90
90
ENDCHAR
STARTCHAR B
ENCODING 66
SWIDTH 488 0
DWIDTH 5 0
BBX 4 7 0 0
BITMAP
E0
90
90
E0
90
90
E0
ENDCHAR
STARTCHAR C
ENCODING 67
SWIDTH 390 0
DWIDTH 4 0
BBX 3 7 0 0
BITMAP
60
80
80
80
80
80
60
ENDCHAR
STARTCHAR D
ENCODING 68
SWIDTH 488 0
DWIDTH 5 0
BBX 4 7 0 0
BITMAP
E0
90
90
90
90
90
E0
ENDCHAR
STARTCHAR E
ENCODING 69
SWIDTH 390 0
DWIDTH 4 0
BBX 3 7 0 0
BITMAP
E0
80
80
E0
80
80
E0
ENDCHAR
STARTCHAR F
ENCODING 70
SWIDTH 390 0
DWIDTH 4 0
BBX 3 7 0 0
BITMAP
E0
80
80
E0
80
80
80
ENDCHAR
STARTCHAR G
ENCODING 71
SWIDTH 488 0
DWIDTH 5 0
BBX 4 7 0 0
BITMAP
60
80
80
B0
90
90
60
ENDCHAR
STARTCHAR H
ENCODING 72
SWIDTH 488 0
DWIDTH 5 0
BBX 4 7 0 0
BITMAP
90
90
90
F0
90
90
90
ENDCHAR
STARTCHAR I
ENCODING 73
SWIDTH 195 0
DWIDTH 2 0
BBX 1 7 0 0
BITMAP
80
80
80
80
80
80
80
ENDCHAR
STARTCHAR J
ENCODING 74
SWIDTH 292 0
DWIDTH 3 0
BBX 2 7 0 0
BITMAP
C0
40
40
40
40
40
80
ENDCHAR
STARTCHAR K
ENCODING 75
SWIDTH 488 0
DWIDTH 5 0
BBX 4 7 0 0
BITMAP
90
90
A0
C0
A0
90
90
ENDCHAR
STARTCHAR L
ENCODING 76
SWIDTH 390 0
DWIDTH 4 0
BBX 3 7 0 0
BITMAP
80
80
80
80
80
80
E0
ENDCHAR
STARTCHAR M
ENCODING 77
SWIDTH 585 0
DWIDTH 6 0
BBX 5 7 0 0
BITMAP
88
88
D8
A8
88
88
88
ENDCHAR
STARTCHAR N
ENCODING 78
SWIDTH 488 0
DWIDTH 5 0
BBX 4 7 0 0
BITMAP
90
90
D0
B0
90
90
90
ENDCHAR
STARTCHAR O
ENCODING 79
SWIDTH 488 0
DWIDTH 5 0
BBX 4 7 0 0
BITMAP
60
90
90
90
90
90
60
ENDCHAR
STARTCHAR P
ENCODING 80
SWIDTH 488 0
DWIDTH 5 0
BBX 4 7 0 0
BITMAP
E0
90
90
E0
80
80
80
ENDCHAR
STARTCHAR Q
ENCODING 81
SWIDTH 488 0
DWIDTH 5 0
BBX 4 7 0 0
BITMAP
60
90
90
90
90
A0
50
ENDCHAR
STARTCHAR R
ENCODING 82
SWIDTH 488 0
DWIDTH 5 0
BBX 4 7 0 0
BITMAP
E0
90
90
E0
90
90
90
ENDCHAR
STARTCHAR S
ENCODING 83
SWIDTH 390 0
DWIDTH 4 0
BBX 3 7 0 0
BITMAP
60
80
80
40
20
20
C0
ENDCHAR
STARTCHAR T
ENCODING 84
SWIDTH 390 0
DWIDTH 4 0
BBX 3 7 0 0
BITMAP
E0
40
40
40
40
40
40
ENDCHAR
STARTCHAR U
ENCODING 85
SWIDTH 488 0
DWIDTH 5 0
BBX 4 7 0 0
BITMAP
90
90
90
90
90
90
60
ENDCHAR
STARTCHAR V
ENCODING 86
SWIDTH 585 0
DWIDTH 6 0
BBX 5 7 0 0
BITMAP
88
88
88
50
50
20
20
ENDCHAR
STARTCHAR W
ENCODING 87
SWIDTH 585 0
DWIDTH 6 0
BBX 5 7 0 0
BITMAP
88
88
88
A8
D8
88
88
ENDCHAR
STARTCHAR X
ENCODING 88
SWIDTH 585 0
DWIDTH 6 0
BBX 5 7 0 0
BITMAP
88
88
50
20
50
88
88
ENDCHAR
STARTCHAR Y
ENCODING 89
SWIDTH 585 0
DWIDTH 6 0
BBX 5 7 0 0
BITMAP
88
88
50
20
20
20
20
ENDCHAR
STARTCHAR Z
ENCODING 90
SWIDTH 390 0
DWIDTH 4 0
BBX 3 7 0 0
BITMAP
E0
20
40
40
40
80
E0
ENDCHAR
STARTCHAR bracketleft
ENCODING 91
SWIDTH 292 0
DWIDTH 3 0
BBX 2 11 0 -2
BITMAP
C0
80
80
80
80
80
80
80
80
80
C0
ENDCHAR
STARTCHAR backslash
ENCODING 92
SWIDTH 390 0
DWIDTH 4 0
BBX 3 9 0 -1
BITMAP
80
80
80
40
40
40
20
20
20
ENDCHAR
STARTCHAR bracketright
ENCODING 93
SWIDTH 292 0
DWIDTH 3 0
BBX 2 11 0 -2
BITMAP
C0
40
40
40
40
40
40
40
40
40
C0
ENDCHAR
STARTCHAR asciicircum
ENCODING 94
SWIDTH 390 0
DWIDTH 4 0
BBX 3 2 0 6
BITMAP
40
A0
ENDCHAR
STARTCHAR underscore
ENCODING 95
SWIDTH 585 0
DWIDTH 6 0
BBX 5 1 0 -1
BITMAP
F8
ENDCHAR
STARTCHAR a
ENCODING 97
SWIDTH 488 0
DWIDTH 5 0
BBX 4 5 0 0
BITMAP
60
10
70
90
70
ENDCHAR
STARTCHAR b
ENCODING 98
SWIDTH 488 0
DWIDTH 5 0
BBX 4 7 0 0
BITMAP
80
80
E0
90
90
90
E0
ENDCHAR
STARTCHAR c
ENCODING 99
SWIDTH 390 0
DWIDTH 4 0
BBX 3 5 0 0
BITMAP
60
80
80
80
60
ENDCHAR
STARTCHAR d
ENCODING 100
SWIDTH 488 0
DWIDTH 5 0
BBX 4 7 0 0
BITMAP
10
10
70
90
90
90
70
ENDCHAR
STARTCHAR e
ENCODING 101
SWIDTH 488 0
DWIDTH 5 0
BBX 4 5 0 0
BITMAP
60
90
F0
80
60
ENDCHAR
STARTCHAR f
ENCODING 102
SWIDTH 292 0
DWIDTH 3 0
BBX 3 7 0 0
BITMAP
60
80
C0
80
80
80
80
ENDCHAR
STARTCHAR g
ENCODING 103
SWIDTH 488 0
DWIDTH 5 0
BBX 4 7 0 -2
BITMAP
60
90
90
90
70
10
60
ENDCHAR
STARTCHAR h
ENCODING 104
SWIDTH 488 0
DWIDTH 5 0
BBX 4 7 0 0
BITMAP
80
80
E0
90
90
90
90
ENDCHAR
STARTCHAR i
ENCODING 105
SWIDTH 195 0
DWIDTH 2 0
BBX 1 7 0 0
BITMAP
80
00
80
80
80
80
80
ENDCHAR
STARTCHAR j
ENCODING 106
SWIDTH 195 0
DWIDTH 2 0
BBX 2 9 -1 -2
BITMAP
40
00
40
40
40
40
40
40
80
ENDCHAR
STARTCHAR k
ENCODING 107
SWIDTH 488 0
DWIDTH 5 0
BBX 4 7 0 0
BITMAP
80
80
90
A0
C0
A0
90
ENDCHAR
STARTCHAR l
ENCODING 108
SWIDTH 195 0
DWIDTH 2 0
BBX 1 7 0 0
BITMAP
80
80
80
80
80
80
80
ENDCHAR
STARTCHAR m
ENCODING 109
SWIDTH 781 0
DWIDTH 8 0
BBX 7 5 0 0
BITMAP
6C
92
92
92
92
ENDCHAR
STARTCHAR n
ENCODING 110
SWIDTH 488 0
DWIDTH 5 0
BBX 4 5 0 0
BITMAP
60
90
90
90
90
ENDCHAR
STARTCHAR o
ENCODING 111
SWIDTH 488 0
DWIDTH 5 0
BBX 4 5 0 0
BITMAP
60
90
90
90
60
ENDCHAR
STARTCHAR p
ENCODING 112
SWIDTH 488 0
DWIDTH 5 0
BBX 4 7 0 -2
BITMAP
E0
90
90
90
E0
80
80
ENDCHAR
STARTCHAR q
ENCODING 113
SWIDTH 488 0
DWIDTH 5 0
BBX 5 7 0 -2
BITMAP
60
90
90
90
70
10
18
ENDCHAR
STARTCHAR r
ENCODING 114
SWIDTH 390 0
DWIDTH 4 0
BBX 3 5 0 0
BITMAP
60
80
80
80
80
ENDCHAR
STARTCHAR s
ENCODING 115
SWIDTH 390 0
DWIDTH 4 0
BBX 3 5 0 0
BITMAP
60
80
40
20
C0
ENDCHAR
STARTCHAR t
ENCODING 116
SWIDTH 390 0
DWIDTH 4 0
BBX 3 7 0 0
BITMAP
80
80
C0
80
80
80
60
ENDCHAR
STARTCHAR u
ENCODING 117
SWIDTH 488 0
DWIDTH 5 0
BBX 4 5 0 0
BITMAP
90
90
90
90
60
ENDCHAR
STARTCHAR v
ENCODING 118
SWIDTH 585 0
DWIDTH 6 0
BBX 5 5 0 0
BITMAP
88
88
50
50
20
ENDCHAR
STARTCHAR w
ENCODING 119
SWIDTH 781 0
DWIDTH 8 0
BBX 7 5 0 0
BITMAP
92
92
92
92
6C
ENDCHAR
STARTCHAR x
ENCODING 120
SWIDTH 585 0
DWIDTH 6 0
BBX 5 5 0 0
BITMAP
88
50
20
50
88
ENDCHAR
STARTCHAR y
ENCODING 121
SWIDTH 488 0
DWIDTH 5 0
BBX 4 7 0 -2
BITMAP
90
90
90
90
70
10
60
ENDCHAR
STARTCHAR z
ENCODING 122
SWIDTH 390 0
DWIDTH 4 0
BBX 3 5 0 0
BITMAP
E0
20
40
80
E0
ENDCHAR
STARTCHAR braceleft
ENCODING 123
SWIDTH 390 0
DWIDTH 4 0
BBX 3 9 0 -1
BITMAP
20
40
40
40
80
40
40
40
20
ENDCHAR
STARTCHAR bar
ENCODING 124
SWIDTH 390 0
DWIDTH 4 0
BBX 1 11 1 -2
BITMAP
80
80
80
80
80
80
80
80
80
80
80
ENDCHAR
STARTCHAR braceright
ENCODING 125
SWIDTH 390 0
DWIDTH 4 0
BBX 3 9 0 -1
BITMAP
80
40
40
40
20
40
40
40
80
ENDCHAR
STARTCHAR asciitilde
ENCODING 126
SWIDTH 585 0
DWIDTH 6 0
BBX 5 3 0 1
BITMAP
40
A8
10
ENDCHAR
STARTCHAR space.dup1
ENCODING 160
SWIDTH 292 0
DWIDTH 3 0
BBX 1 1 0 0
BITMAP
00
ENDCHAR
STARTCHAR sterling
ENCODING 163
SWIDTH 488 0
DWIDTH 5 0
BBX 4 7 0 0
BITMAP
30
40
40
60
40
40
F0
ENDCHAR
STARTCHAR copyright
ENCODING 169
SWIDTH 781 0
DWIDTH 8 0
BBX 7 7 0 0
BITMAP
38
44
9A
A2
9A
44
38
ENDCHAR
STARTCHAR guillemotleft
ENCODING 171
SWIDTH 585 0
DWIDTH 6 0
BBX 5 3 0 1
BITMAP
48
90
48
ENDCHAR
STARTCHAR logicalnot
ENCODING 172
SWIDTH 495 0
DWIDTH 5 0
BBX 5 3 0 1
BITMAP
F8
08
08
ENDCHAR
STARTCHAR hyphen.dup2
ENCODING 173
SWIDTH 390 0
DWIDTH 4 0
BBX 3 1 0 2
BITMAP
E0
ENDCHAR
STARTCHAR registered
ENCODING 174
SWIDTH 781 0
DWIDTH 8 0
BBX 7 7 0 0
BITMAP
38
44
9A
A2
A2
44
38
ENDCHAR
STARTCHAR degree
ENCODING 176
SWIDTH 390 0
DWIDTH 4 0
BBX 3 3 0 5
BITMAP
40
A0
40
ENDCHAR
STARTCHAR guillemotright
ENCODING 187
SWIDTH 585 0
DWIDTH 6 0
BBX 5 3 0 1
BITMAP
90
48
90
ENDCHAR
STARTCHAR divide
ENCODING 247
SWIDTH 585 0
DWIDTH 6 0
BBX 5 5 0 1
BITMAP
20
00
F8
00
20
ENDCHAR
STARTCHAR semicolon.dup3
ENCODING 894
SWIDTH 195 0
DWIDTH 2 0
BBX 1 5 0 -1
BITMAP
80
00
00
80
80
ENDCHAR
STARTCHAR endash
ENCODING 8211
SWIDTH 541 0
DWIDTH 5 0
BBX 5 1 0 2
BITMAP
F8
ENDCHAR
STARTCHAR emdash
ENCODING 8212
SWIDTH 1000 0
DWIDTH 10 0
BBX 10 1 0 2
BITMAP
FFC0
ENDCHAR
STARTCHAR quoteleft
ENCODING 8216
SWIDTH 195 0
DWIDTH 2 0
BBX 1 2 0 6
BITMAP
80
80
ENDCHAR
STARTCHAR quoteright
ENCODING 8217
SWIDTH 195 0
DWIDTH 2 0
BBX 1 2 0 6
BITMAP
80
80
ENDCHAR
STARTCHAR quotedblleft
ENCODING 8220
SWIDTH 390 0
DWIDTH 4 0
BBX 3 2 0 6
BITMAP
A0
A0
ENDCHAR
STARTCHAR quotedblright
ENCODING 8221
SWIDTH 390 0
DWIDTH 4 0
BBX 3 2 0 6
BITMAP
A0
A0
ENDCHAR
STARTCHAR Euro
ENCODING 8364
SWIDTH 488 0
DWIDTH 5 0
BBX 4 7 0 0
BITMAP
30
40
80
E0
80
40
30
ENDCHAR
STARTCHAR .notdef
ENCODING -1
SWIDTH 500 0
DWIDTH 5 0
BBX 5 7 0 0
BITMAP
88
88
88
88
88
A8
88
ENDCHAR
STARTCHAR .null
ENCODING -1
SWIDTH 0 0
DWIDTH 0 0
BBX 1 1 0 0
BITMAP
00
ENDCHAR
STARTCHAR nonmarkingreturn
ENCODING -1
SWIDTH 248 0
DWIDTH 2 0
BBX 1 1 0 0
BITMAP
00
ENDCHAR
ENDFONT
